<svg id="Camada_3" data-name="Camada 3" xmlns="http://www.w3.org/2000/svg" viewBox="0 0 1000 1000"><path d="M129.15,512.52c-4.79-6.51-11.47-11.52-20-15.06-1.52-.9-5.27-1.7-4.5-3.85.65-1.14,3-2.24,4.49-3,22.71-9.85,29.63-38,18.81-58.64-8.29-16.41-24.84-24-42.76-24.87-17-.65-80.21-.47-80.21-.47V573c0,20.78,20.39,20.7,22.61,20.65v0H64.38c16.26.23,35.15.24,49-7.26,25.67-12.94,33.18-50.75,16-73.61Zm-23.44,51.23-.26.23C96.76,572.07,72,573.13,72,573.13s-32.52.34-43.59-.19c-.2-1-.5-141-.5-146.15,2.57-1,36-1,36-1s27.06-.63,37.67,8.84c13.44,12.15,9.52,37.65-5.21,46.52-8.09,4.64-17.79,6.56-27.1,6.84-5.32.36-17,0-17,0s1.89,17,11.33,17c7.56,0,20.57.07,26.36,1.42C114.37,511.3,124.18,546.94,105.71,563.75Z"/><path d="M443.43,406.76s-22.82-.81-22.82,8.67V584.32C409.28,554.1,375.5,450.88,363.4,414.71c-2.57-7.66-6.79-7.44-13.95-7.74-7.53,0-12-.23-15,8.46-12.5,35.89-46.75,136-57.75,168.22l-30.09-74.28s-.12-1.93,1-2.61l.17-.11s19-9.9,23.81-18.45c14.36-22,9.79-51.78-9.6-68.73-13-12-32.16-12.73-51.12-12.73-17.29,0-62.37.63-62.37.63l.1,186.4,22.81,0s.06-161,.06-167.19c7,.05,42.3.35,53.81,1,13.23.82,27.49,8.66,30.48,22.76,3.66,14.56-2.92,32.3-16.24,38.85-12.11,6.23-45.59,4.47-45.59,4.47s1.89,18.9,13.23,18.9c7,0,15.72.55,15.72.55S248,571,254.37,584.32c3.78,9.45,8.05,9.33,11.33,9.45,2.34,0,30.23,0,30.23,0s48.49-150.84,50.8-157.71c.13-.32.22-.37.34-.13s50.64,153.41,51.15,154.93c.91,2.33.12,2.93,4.6,3,5,0,40.46-.09,40.46-.09Z"/><path d="M723.52,511.79c-4.78-6.5-11.46-11.52-20-15.06-1.52-.9-5.26-1.7-4.49-3.84.65-1.14,3-2.25,4.48-3,22.72-9.85,29.63-37.95,18.82-58.64-8.3-16.41-24.85-24-42.76-24.87-23.51-.9-54.76-.12-78.7-.3-1.15.07-1.16.38-1.18,1.26.1,16.21.37,186.45.37,186.45l58.68-.83s35.14.25,49-7.26c25.67-12.94,33.18-50.74,16-73.6ZM700.08,563l-.25.23c-8.7,8.08-33.5,9.14-33.5,9.14l-43.58-.19-.67-146,36.57-.55s26.65-1.22,37.26,8.25c13.45,12.16,9.53,37.65-5.2,46.52-8.1,4.65-17.79,6.57-27.11,6.84-5.31.37-17,0-17,0s1.89,17,11.34,17c7.55,0,20.56.07,26.35,1.42C708.74,510.57,718.55,546.21,700.08,563Z"/><path d="M855.06,439c-10.53-19-29.17-32.54-51.13-32.23a54.46,54.46,0,0,0-36.4,12.55c-9.24,7.8-15.94,17.89-20.73,28.53-21.47,47.67-11.51,145.05,55.56,146h.38C871.53,593.16,883.1,485.11,855.06,439Zm-51.82,136.5h-.36c-44.34-1.8-49-67.48-42.83-100.94,3.56-22.19,17.47-50,42.91-49.36,11.14,0,21,4.61,28.54,13.66,10.6,13.07,14,26.36,16,44.81C850.42,516.93,844.24,574.07,803.24,575.48Z"/><polygon points="935.64 492.28 987.54 407.55 966.49 407.55 924.95 475.96 884.37 407.55 858.45 407.55 911.22 496.86 851.94 592.64 873.47 592.64 922.08 513.76 968.77 592.64 995 592.64 935.64 492.28"/><path d="M569.86,414.86V551.61c-17.31-24-69.9-99.53-98.24-139.2-4.53-6.34-20.73-5.67-20.73-5.67l-.2,187.33s22.82.76,22.82-8.17V444.53c16.53,23.83,81.78,118.16,98.23,137.9,9.45,11.34,20.78,10.74,20.78,10.74a.87.87,0,0,0,.2-.56c0-3.26-.05-186.45-.05-186.45S569.86,405.34,569.86,414.86Z"/></svg>