<svg xmlns="http://www.w3.org/2000/svg" viewBox="0 0 1000 1000"><g id="Camada_2" data-name="Camada 2"><path d="M598.05,795.24c0,5.59,4.05,10.14,9,10.14s9-4.55,9-10.14-4-10.15-9-10.15S598.05,789.64,598.05,795.24Z"/><path d="M859.69,770.59c-35.42,32-87.3,40.33-137.58,40.34-31.51,0-62.38-3.27-88.21-6-3.88,11.52-14.41,19.83-26.81,19.83-15.66,0-28.41-13.24-28.41-29.51s12.75-29.51,28.41-29.51c12.36,0,22.87,8.25,26.77,19.71l1.73.19c63.64,6.75,159.82,17,211.11-29.41,20.47-18.5,32.33-45.27,35.43-79.68-6.41-49.23-28-83-56.58-104.45a405.13,405.13,0,0,1-50.32,21.48c-32.35,11.28-82.62,28.17-145.63,21.64C607,612.87,567,605.51,523.08,578L534,555a254,254,0,0,0,99.54,34.82c60.51,7.55,106.44-9.48,135-20.07,45.24-16.77,65.51-35.64,70.3-40.23,22.57-21.64,32.46-43.8,34.65-48.87a146.08,146.08,0,0,0,10.71-73.94V297.4C884.15,138.8,761.8,9.77,611.4,9.77h-153C403,9.77,361,25.63,333.82,56.91c-25.95,29.85-31.47,66.19-32.1,88.4-76.86,9.84-132.44,54.8-161.37,131-21.84,57.48-20.79,113.1-20.58,119.84,0,2.87-.25,17.68-.56,41.45q22.24-33.19,66.91-50c46.59-17.48,101.29-17.95,142.21-18,3.87-11.53,14.41-19.83,26.8-19.83,15.67,0,28.41,13.24,28.41,29.51s-12.74,29.51-28.41,29.51c-12.39,0-22.93-8.3-26.8-19.82-95.39.21-195.48,9.75-209.82,104.64-1.39,115.3-3.41,312-3.41,477.28v19.37H884.15V739.31A117.23,117.23,0,0,1,859.69,770.59Z"/><path d="M364.18,379.25c0-5.59-4.06-10.14-9.05-10.14s-9,4.55-9,10.14,4.06,10.14,9,10.14S364.18,384.84,364.18,379.25Z"/></g></svg>