<svg xmlns="http://www.w3.org/2000/svg" fill="#F8FBFF" viewBox="0 0 1000 1000"><polygon points="10 722.43 155.76 814.48 983.16 822.62 866.66 722.43 10 722.43"/><path d="M856.29,282.37c23.58,32.07,25.6,109.26,25.6,145.72,0,80.55.78,281,.78,281l96.73,84.74L979,397.84C978.82,279,856.29,282.37,856.29,282.37Z"/><path d="M990,817.13,872.11,713.86l0-4.78c0-2-.78-201.35-.78-281,0-69.27-8.36-118.8-23.54-139.45l-12-16.28,20.2-.56c2.45-.07,60.49-1.23,99.57,36.74,22.5,21.85,33.92,51.9,34,89.29Z"/><path d="M464.61,419.43H454c0-35.22,16.32-59.2,48.5-71.28,26.15-9.81,57-9.81,79.54-9.81v10.58C525.24,348.92,464.61,354.37,464.61,419.43Z"/><path d="M594.85,359.75c-8.55,0-15.52-7.23-15.52-16.12s7-16.12,15.52-16.12,15.52,7.23,15.52,16.12S603.41,359.75,594.85,359.75Zm0-21.66c-2.72,0-4.94,2.48-4.94,5.54s2.22,5.54,4.94,5.54,4.94-2.49,4.94-5.54S597.58,338.09,594.85,338.09Z"/><path d="M752.75,574c-17.28,0-34.22-1.8-48.37-3.3l-1.77-.19L703.72,560l1.77.19c34.77,3.68,87.3,9.26,115.32-16.07,13.27-12,19.93-30.32,19.81-54.46l10.58-.06c.14,27.29-7.7,48.27-23.3,62.37C808.55,569.46,780.22,574,752.75,574Z"/><path d="M689.92,581.55c-8.55,0-15.51-7.23-15.51-16.11s7-16.12,15.51-16.12,15.52,7.23,15.52,16.12S698.48,581.55,689.92,581.55Zm0-21.65c-2.72,0-4.94,2.48-4.94,5.54s2.22,5.54,4.94,5.54,4.94-2.49,4.94-5.54S692.65,559.9,689.92,559.9Z"/><path d="M862.43,712.93H442.35V558.67c0-42.52,18.12-67.74,41.88-80.48q-2.6-1.37-5.14-3c-24.38-15.46-36.74-42.73-36.74-81V334.49c0-86.63,66.83-157.11,149-157.11h83.58c30.29,0,53.18,8.66,68,25.75,14.18,16.3,17.2,36.15,17.54,48.28,42,5.37,72.34,29.94,88.14,71.54,11.93,31.4,11.36,61.78,11.24,65.46.12,7.88,2.56,179.85,2.56,313.94ZM463.51,691.77H841.27c-.13-134.75-2.53-301.6-2.55-303.32v-.3l0-.29c.17-4.54,3.29-111.44-89.71-116.24l-11.53-.6,1.6-11.43c0-.21,3.11-25.23-12.22-42.71-10.67-12.18-28.16-18.35-52-18.35H591.33c-70.48,0-127.82,61-127.82,136v59.69c0,63.76,38.8,72.54,68,73.59v.1c4.68.59,9.86,2.72,10.2,10l.47,10.33-10.87.75-.56,0-2.29-.08c-6.31-.05-29.27,1-45.76,16.25-12.73,11.81-19.18,29.83-19.18,53.59Z"/><path d="M432.29,712.93H12.21V702.35c0-134.09,2.44-306.06,2.55-313.94-.12-3.68-.68-34.06,11.24-65.46,15.81-41.6,46.16-66.17,88.15-71.54.34-12.13,3.36-32,17.53-48.28,14.87-17.09,37.76-25.75,68-25.75H283.3c82.15,0,149,70.48,149,157.11v59.69c0,38.31-12.37,65.58-36.75,81-1.69,1.07-3.41,2.06-5.13,3,23.76,12.74,41.88,38,41.88,80.48ZM33.37,691.77H411.13V558.67c0-23.76-6.45-41.78-19.18-53.59-16.49-15.29-39.41-16.33-45.77-16.25l-2.29.08-.55,0-10.87-.75.47-10.33c.34-7.26,5.52-9.39,10.19-10v-.1c29.19-1,68-9.83,68-73.59V334.49c0-75-57.34-136-127.83-136H199.73c-23.81,0-41.29,6.17-52,18.35-15.34,17.48-12.25,42.5-12.21,42.75L137.05,271l-11.43.64c-38.91,2-65.77,21.8-79.84,58.84-10.93,28.77-9.88,57.11-9.87,57.4v.59C35.89,390.17,33.49,557,33.37,691.77Z"/><path d="M34.56,455H24c0-35.22,16.32-59.2,48.5-71.28,26.15-9.81,57-9.81,79.54-9.81v10.57C95.19,384.48,34.56,389.93,34.56,455Z"/><path d="M164.8,395.31c-8.55,0-15.51-7.23-15.51-16.11s7-16.12,15.51-16.12,15.52,7.23,15.52,16.12S173.36,395.31,164.8,395.31Zm0-21.65c-2.72,0-4.94,2.48-4.94,5.54s2.22,5.54,4.94,5.54,4.94-2.49,4.94-5.54S167.53,373.66,164.8,373.66Z"/><path d="M319.61,615c-17.28,0-34.22-1.8-48.37-3.3l-1.77-.19L270.58,601l1.77.19c34.77,3.69,87.3,9.26,115.32-16.06,13.27-12,19.93-30.32,19.81-54.47l10.58,0c.14,27.28-7.7,48.27-23.3,62.37C375.41,610.45,347.08,615,319.61,615Z"/><path d="M256.79,622.54c-8.56,0-15.52-7.23-15.52-16.12s7-16.12,15.52-16.12,15.51,7.23,15.51,16.12S265.34,622.54,256.79,622.54Zm0-21.66c-2.73,0-4.94,2.48-4.94,5.54s2.21,5.54,4.94,5.54,4.93-2.49,4.93-5.54S259.51,600.88,256.79,600.88Z"/></svg>