<svg xmlns="http://www.w3.org/2000/svg" viewBox="0 0 1000 1000"><g id="Camada_2" data-name="Camada 2"><path d="M614.49,793.71a10.58,10.58,0,1,0,10.57-10.09A10.34,10.34,0,0,0,614.49,793.71Z"/><path d="M920.3,769.2c-41.4,31.84-102,40.11-160.81,40.11-36.82,0-72.9-3.25-103.1-6-4.53,11.46-16.84,19.71-31.33,19.71-18.31,0-33.21-13.16-33.21-29.34s14.9-29.35,33.21-29.35c14.44,0,26.72,8.21,31.28,19.61l2,.18c74.39,6.72,186.81,16.86,246.76-29.24,23.92-18.4,37.78-45,41.4-79.24-7.49-48.95-32.74-82.52-66.12-103.87a521.22,521.22,0,0,1-58.82,21.36c-37.82,11.23-96.58,28-170.23,21.53a325,325,0,0,1-124.5-37.05l12.72-22.86A331.45,331.45,0,0,0,655.93,589.4c70.72,7.52,124.4-9.42,157.78-19.95,52.87-16.68,76.57-35.45,82.16-40,26.39-21.52,38-43.55,40.5-48.6a125.44,125.44,0,0,0,12.52-73.52V298.64c0-157.71-143-286-318.8-286H451.26c-64.81,0-113.8,15.78-145.6,46.89-30.34,29.67-36.8,65.81-37.52,87.9-89.85,9.78-154.81,54.5-188.62,130.24C54,334.8,55.21,390.11,55.46,396.81c0,2.86-.29,17.59-.65,41.22q26-33,78.2-49.76c54.46-17.38,118.4-17.85,166.22-17.86,4.52-11.46,16.84-19.72,31.33-19.72,18.31,0,33.21,13.17,33.21,29.35s-14.9,29.34-33.21,29.34c-14.48,0-26.8-8.25-31.32-19.7-111.5.2-228.48,9.69-245.25,104.05C52.37,608.39,50,804,50,968.36v19.25H948.89V738.09A121.52,121.52,0,0,1,920.3,769.2Z"/><path d="M341.13,380a10.58,10.58,0,1,0-10.57,10.08A10.34,10.34,0,0,0,341.13,380Z"/></g></svg>