<?xml version="1.0" encoding="UTF-8"?>
<svg id="Camada_3" data-name="Camada 3" xmlns="http://www.w3.org/2000/svg" viewBox="0 0 524.05 365.33" fill="#F8FBFF">
  <defs>
    <style>
      .cls-1 {
        stroke-width: 0px;
      }
    </style>
  </defs>
  <g>
    <path class="cls-1" d="m65.72,322.15c-2.53-3.45-6.07-6.1-10.57-7.97-.81-.47-2.79-.9-2.38-2.03.34-.6,1.6-1.19,2.38-1.6,12.02-5.21,15.68-20.09,9.96-31.04-4.39-8.69-13.15-12.71-22.63-13.17-9.02-.34-42.46-.24-42.46-.24v88.06c0,11,10.79,10.96,11.97,10.93,0,0,0,.01,0,.02,6.41,0,14.58,0,19.46,0,8.61.12,18.6.13,25.93-3.85,13.59-6.85,17.56-26.86,8.46-38.96l-.11-.15Zm-12.41,27.12l-.13.12c-4.6,4.28-17.73,4.84-17.73,4.84,0,0-17.21.18-23.07-.1-.11-.53-.26-74.65-.26-77.36,1.36-.53,19.06-.54,19.06-.54,0,0,14.32-.33,19.94,4.68,7.12,6.43,5.04,19.93-2.75,24.63-4.28,2.46-9.42,3.47-14.35,3.62-2.82.19-9,0-9,0,0,0,1,9,6,9,4,0,10.89.04,13.95.75,12.94,2.59,18.14,21.46,8.36,30.36Z"/>
    <path class="cls-1" d="m232.08,266.17s-12.08-.43-12.08,4.59v89.4c-6-16-23.88-70.64-30.29-89.78-1.36-4.06-3.6-3.94-7.38-4.1-3.99-.02-6.33-.12-7.93,4.48-6.62,19-24.74,72.01-30.57,89.05l-15.92-39.32s-.07-1.02.51-1.38l.09-.06s10.06-5.24,12.6-9.76c7.6-11.65,5.18-27.41-5.08-36.38-6.89-6.35-17.03-6.74-27.06-6.73-9.15,0-33.02.33-33.02.33l.05,98.67h12.08s.03-85.26.03-88.51c3.69.03,22.39.19,28.48.53,7,.44,14.55,4.58,16.14,12.05,1.94,7.71-1.54,17.1-8.6,20.57-6.41,3.3-24.13,2.37-24.13,2.37,0,0,1,10,7,10,3.69,0,8.32.29,8.32.29,0,0,13.32,30.62,16.68,37.71,2,5,4.26,4.94,6,5,1.24.02,16,0,16,0,0,0,25.67-79.85,26.89-83.48.07-.17.12-.19.18-.07.1.21,26.8,81.21,27.07,82.01.49,1.23.07,1.55,2.44,1.59,2.63.01,21.42-.05,21.42-.05l.08-98.99Z"/>
    <path class="cls-1" d="m380.34,321.77c-2.53-3.45-6.07-6.1-10.57-7.97-.81-.47-2.79-.9-2.38-2.03.34-.6,1.6-1.19,2.38-1.6,12.02-5.21,15.68-20.09,9.96-31.04-4.39-8.69-13.15-12.71-22.63-13.17-12.45-.47-28.98-.06-41.66-.16-.61.04-.61.2-.62.67.05,8.58.2,98.69.2,98.69l31.06-.44s18.6.13,25.93-3.85c13.59-6.85,17.56-26.86,8.46-38.96l-.11-.15Zm-12.41,27.12l-.13.12c-4.6,4.28-17.73,4.84-17.73,4.84l-23.07-.1-.35-77.3,19.36-.29s14.11-.64,19.73,4.37c7.12,6.43,5.04,19.93-2.75,24.63-4.28,2.46-9.42,3.47-14.35,3.62-2.82.19-9,0-9,0,0,0,1,9,6,9,4,0,10.89.04,13.95.75,12.94,2.59,18.14,21.46,8.36,30.36Z"/>
    <path class="cls-1" d="m449.97,283.22c-5.57-10.03-15.44-17.22-27.06-17.06-7.02-.12-13.86,2.06-19.27,6.64-4.89,4.12-8.44,9.46-10.97,15.1-11.36,25.23-6.09,76.78,29.41,77.25h.2c36.41-.32,42.54-57.52,27.69-81.94Zm-27.43,72.26h-.19c-23.47-.96-25.95-35.72-22.67-53.44,1.89-11.74,9.25-26.46,22.71-26.13,5.9-.02,11.12,2.44,15.11,7.23,5.61,6.92,7.4,13.95,8.45,23.72,1.56,17.62-1.71,47.86-23.41,48.61Z"/>
    <polygon class="cls-1" points="492.62 311.44 520.1 266.59 508.95 266.59 486.96 302.8 465.49 266.59 451.77 266.59 479.7 313.86 448.32 364.56 459.71 364.56 485.45 322.81 510.16 364.56 524.05 364.56 492.62 311.44"/>
    <path class="cls-1" d="m299,270.46v72.39c-9.16-12.7-37-52.68-52-73.68-2.4-3.36-10.97-3-10.97-3l-.11,99.16s12.08.41,12.08-4.32v-74.84c8.75,12.61,43.29,62.55,52,73,5,6,11,5.68,11,5.68.06-.07.09-.16.1-.29.01-1.72-.02-98.7-.02-98.7,0,0-12.08-.43-12.08,4.6Z"/>
  </g>
  <g>
    <polygon class="cls-1" points="79.52 203 133.81 237.29 441.97 240.32 398.59 203 79.52 203"/>
    <g>
      <path class="cls-1" d="m394.72,39.11c8.78,11.94,9.53,40.69,9.53,54.27,0,30,.29,104.64.29,104.64l36.03,31.56s-.12-108.43-.16-147.47c-.05-44.28-45.69-43.01-45.69-43.01Z"/>
      <path class="cls-1" d="m444.52,238.28l-43.91-38.47v-1.78c0-.75-.3-74.99-.3-104.66,0-25.8-3.11-44.24-8.77-51.94l-4.46-6.06,7.52-.21c.91-.03,22.53-.46,37.09,13.68,8.38,8.14,12.63,19.33,12.65,33.26l.17,156.17Z"/>
    </g>
    <g>
      <g>
        <g>
          <path class="cls-1" d="m248.84,90.15h-3.94c0-13.12,6.08-22.05,18.06-26.55,9.74-3.65,21.23-3.65,29.62-3.65v3.94c-21.17,0-43.75,2.03-43.75,26.26Z"/>
          <path class="cls-1" d="m297.35,67.92c-3.19,0-5.78-2.69-5.78-6s2.59-6,5.78-6,5.78,2.69,5.78,6-2.59,6-5.78,6Zm0-8.07c-1.01,0-1.84.93-1.84,2.06s.83,2.06,1.84,2.06,1.84-.93,1.84-2.06-.83-2.06-1.84-2.06Z"/>
        </g>
        <g>
          <path class="cls-1" d="m356.16,147.72c-6.44,0-12.75-.67-18.02-1.23l-.66-.07.41-3.92.66.07c12.95,1.37,32.51,3.45,42.95-5.98,4.94-4.47,7.43-11.29,7.38-20.29l3.94-.02c.05,10.16-2.87,17.98-8.68,23.23-7.21,6.51-17.76,8.21-27.99,8.21Z"/>
          <path class="cls-1" d="m332.76,150.54c-3.19,0-5.78-2.69-5.78-6s2.59-6,5.78-6,5.78,2.69,5.78,6-2.59,6-5.78,6Zm0-8.07c-1.01,0-1.84.93-1.84,2.06s.83,2.06,1.84,2.06,1.84-.93,1.84-2.06-.83-2.06-1.84-2.06Z"/>
        </g>
      </g>
      <path class="cls-1" d="m397.01,199.47h-156.46v-57.45c0-15.84,6.75-25.23,15.6-29.98-.64-.34-1.28-.71-1.91-1.11-9.08-5.76-13.69-15.91-13.69-30.18v-22.23c0-32.27,24.89-58.52,55.49-58.52h31.13c11.28,0,19.81,3.23,25.34,9.59,5.28,6.07,6.4,13.46,6.53,17.98,15.64,2,26.94,11.15,32.83,26.64,4.44,11.7,4.23,23.01,4.19,24.38.04,2.93.95,66.99.95,116.93v3.94Zm-148.58-7.88h140.7c-.05-50.19-.94-112.33-.95-112.97v-.11s0-.11,0-.11c.07-1.69,1.23-41.5-33.41-43.29l-4.29-.22.6-4.26c.01-.08,1.16-9.4-4.55-15.91-3.98-4.53-10.49-6.83-19.35-6.83h-31.13c-26.25,0-47.61,22.72-47.61,50.64v22.23c0,23.75,14.45,27.02,25.33,27.41v.04c1.74.22,3.67,1.01,3.79,3.72l.18,3.85-4.05.28h-.21c-.26-.02-.54-.03-.85-.04-2.35-.02-10.9.36-17.05,6.05-4.74,4.4-7.14,11.11-7.14,19.96v49.57Z"/>
    </g>
    <g>
      <path class="cls-1" d="m236.8,199.47H80.35v-3.94c0-49.94.91-113.99.95-116.93-.04-1.37-.26-12.69,4.19-24.38,5.89-15.5,17.19-24.64,32.83-26.64.13-4.52,1.25-11.91,6.53-17.98,5.54-6.36,14.06-9.59,25.34-9.59h31.13c30.6,0,55.49,26.25,55.49,58.52v22.23c0,14.27-4.6,24.42-13.69,30.18-.63.4-1.27.77-1.91,1.11,8.85,4.75,15.6,14.14,15.6,29.98v57.45Zm-148.58-7.88h140.7v-49.57c0-8.85-2.4-15.56-7.14-19.96-6.14-5.69-14.68-6.08-17.05-6.05-.31.01-.59.02-.85.03h-.21s-4.05-.27-4.05-.27l.18-3.85c.13-2.71,2.05-3.5,3.8-3.72v-.04c10.87-.39,25.33-3.66,25.33-27.41v-22.23c0-27.92-21.36-50.64-47.61-50.64h-31.13c-8.87,0-15.38,2.3-19.35,6.83-5.71,6.51-4.56,15.83-4.55,15.92l.56,4.23-4.26.24c-14.49.75-24.5,8.12-29.74,21.92-4.07,10.72-3.68,21.27-3.68,21.38v.11s0,.11,0,.11c0,.64-.9,62.79-.95,112.97Z"/>
      <g>
        <g>
          <path class="cls-1" d="m88.67,103.4h-3.94c0-13.12,6.08-22.05,18.06-26.55,9.74-3.65,21.23-3.65,29.62-3.65v3.94c-21.17,0-43.75,2.03-43.75,26.26Z"/>
          <path class="cls-1" d="m137.18,81.17c-3.19,0-5.78-2.69-5.78-6s2.59-6,5.78-6,5.78,2.69,5.78,6-2.59,6-5.78,6Zm0-8.07c-1.01,0-1.84.93-1.84,2.06s.83,2.06,1.84,2.06,1.84-.93,1.84-2.06-.83-2.06-1.84-2.06Z"/>
        </g>
        <g>
          <path class="cls-1" d="m194.84,162.99c-6.44,0-12.75-.67-18.02-1.23l-.66-.07.41-3.92.66.07c12.95,1.37,32.51,3.45,42.95-5.98,4.94-4.47,7.43-11.29,7.38-20.29l3.94-.02c.05,10.16-2.87,17.98-8.68,23.23-7.21,6.51-17.76,8.21-27.99,8.21Z"/>
          <path class="cls-1" d="m171.44,165.8c-3.19,0-5.78-2.69-5.78-6s2.59-6,5.78-6,5.78,2.69,5.78,6-2.59,6-5.78,6Zm0-8.07c-1.01,0-1.84.93-1.84,2.06s.83,2.06,1.84,2.06,1.84-.93,1.84-2.06-.83-2.06-1.84-2.06Z"/>
        </g>
      </g>
    </g>
  </g>
</svg>